# Alias OBJ Model File
# Exported from SketchUp, (c) 2000-2012 Trimble Navigation Limited
# File units = millimeters

mtllib lüsterklemmenhalter_sketchup.mtl

g Mesh1 Group3 Group2 Group1 Model

usemtl FrontColor
v 34.9917 1.40998e-015 -45.0084
vt -1.77165 0.393701
vn 1 5.55112e-017 -0
v 34.9917 5 -45.0084
vt -1.77165 0.19685
v 34.9917 5 -0.00841238
vt 0 0.19685
v 34.9917 1.40998e-015 -0.00841238
vt 0 0.393701
f 1/1/1 2/2/1 3/3/1 4/4/1 

v 19.9917 0 -45.0084
vt -0.590551 0.393701
vn 0 0 -1
v 19.9917 10 -45.0084
vt -0.590551 0
f 5/5/2 6/6/2 2/3/2 1/4/2 

v 19.9917 10 -0.00841238
vt 0 0
vn -1 -5.55112e-017 -0
vt 1.77165 0
vt 1.77165 0.393701
v 19.9917 0 -0.00841238
f 7/7/3 6/8/3 5/9/3 8/4/3 

vt 0 -0.560246
vn 0.316228 0.948683 -0
vt 0 0.0622496
vt -1.77165 0.0622496
vt -1.77165 -0.560246
f 7/10/4 3/11/4 2/12/4 6/13/4 

vn 5.55112e-017 -1 -0
vt 0.590551 0
vt 0.590551 1.77165
vt 0 1.77165
f 4/7/5 8/14/5 5/15/5 1/16/5 

g Mesh2 Group2 Group1 Model

vn 0 0 1
vt 0.590551 5.55112e-017
vt 0.590551 0.19685
f 8/7/6 4/17/6 3/18/6 7/4/6 

g Mesh3 Group6 Group5 Group4 Model

v 54.907 -1.40998e-015 -45.0156
v 54.907 5 -45.0156
v 54.907 5 -0.0155722
v 54.907 -1.40998e-015 -0.0155722
f 9/1/1 10/2/1 11/3/1 12/4/1 

v 39.907 -2.81997e-015 -45.0156
v 39.907 10 -45.0156
f 13/5/2 14/6/2 10/3/2 9/4/2 

v 39.907 10 -0.0155722
v 39.907 -2.81997e-015 -0.0155722
f 15/7/3 14/8/3 13/9/3 16/4/3 

f 15/10/4 11/11/4 10/12/4 14/13/4 

f 12/7/5 16/14/5 13/15/5 9/16/5 

g Mesh4 Group5 Group4 Model

f 16/7/6 12/17/6 11/18/6 15/4/6 

g Mesh5 Group9 Group8 Group7 Model

v 73.4838 1.40998e-015 -45.0201
v 73.4838 5 -45.0201
v 73.4838 5 -0.0201196
v 73.4838 1.40998e-015 -0.0201196
f 17/1/1 18/2/1 19/3/1 20/4/1 

v 58.4838 0 -45.0201
v 58.4838 10 -45.0201
f 21/5/2 22/6/2 18/3/2 17/4/2 

v 58.4838 10 -0.0201196
v 58.4838 0 -0.0201196
f 23/7/3 22/8/3 21/9/3 24/4/3 

f 23/10/4 19/11/4 18/12/4 22/13/4 

f 20/7/5 24/14/5 21/15/5 17/16/5 

g Mesh6 Group8 Group7 Model

f 24/7/6 20/17/6 19/18/6 23/4/6 

