solid Untitled-560dd230
facet normal 1.0 0.0 5.551115123125783e-17
  outer loop
    vertex 16.489731486333604 46.19946987049418 -0.026128173079566927
    vertex 16.489731486333604 1.1994698704941633 4.973871826920433
    vertex 16.489731486333604 1.1994698704941633 -0.026128173079566927
  endloop
endfacet
facet normal 1.0 0.0 5.551115123125783e-17
  outer loop
    vertex 16.489731486333604 1.1994698704941633 4.973871826920433
    vertex 16.489731486333604 46.19946987049418 -0.026128173079566927
    vertex 16.489731486333604 46.19946987049418 4.973871826920433
  endloop
endfacet
facet normal 5.551115123125783e-17 0.0 -1.0
  outer loop
    vertex 1.4897314863336084 1.1994698704941633 -0.02612817307956834
    vertex 16.489731486333604 46.19946987049418 -0.026128173079566927
    vertex 16.489731486333604 1.1994698704941633 -0.026128173079566927
  endloop
endfacet
facet normal 5.551115123125783e-17 0.0 -1.0
  outer loop
    vertex 16.489731486333604 46.19946987049418 -0.026128173079566927
    vertex 1.4897314863336084 1.1994698704941633 -0.02612817307956834
    vertex 1.4897314863336084 46.19946987049418 -0.02612817307956834
  endloop
endfacet
facet normal 0.316227766016838 0.0 0.948683298050514
  outer loop
    vertex 1.4897314863336084 46.19946987049418 9.973871826920432
    vertex 16.489731486333604 1.1994698704941633 4.973871826920433
    vertex 16.489731486333604 46.19946987049418 4.973871826920433
  endloop
endfacet
facet normal 0.316227766016838 0.0 0.948683298050514
  outer loop
    vertex 16.489731486333604 1.1994698704941633 4.973871826920433
    vertex 1.4897314863336084 46.19946987049418 9.973871826920432
    vertex 1.4897314863336084 1.1994698704941633 9.973871826920432
  endloop
endfacet
facet normal -1.0 0.0 -5.551115123125783e-17
  outer loop
    vertex 1.4897314863336084 46.19946987049418 9.973871826920432
    vertex 1.4897314863336084 1.1994698704941633 -0.02612817307956834
    vertex 1.4897314863336084 1.1994698704941633 9.973871826920432
  endloop
endfacet
facet normal -1.0 0.0 -5.551115123125783e-17
  outer loop
    vertex 1.4897314863336084 1.1994698704941633 -0.02612817307956834
    vertex 1.4897314863336084 46.19946987049418 9.973871826920432
    vertex 1.4897314863336084 46.19946987049418 -0.02612817307956834
  endloop
endfacet
facet normal 0.0 1.0 0.0
  outer loop
    vertex 16.489731486333604 46.19946987049418 4.973871826920433
    vertex 1.4897314863336084 46.19946987049418 -0.02612817307956834
    vertex 1.4897314863336084 46.19946987049418 9.973871826920432
  endloop
endfacet
facet normal 0.0 1.0 0.0
  outer loop
    vertex 1.4897314863336084 46.19946987049418 -0.02612817307956834
    vertex 16.489731486333604 46.19946987049418 4.973871826920433
    vertex 16.489731486333604 46.19946987049418 -0.026128173079566927
  endloop
endfacet
facet normal 0.0 -1.0 0.0
  outer loop
    vertex 16.489731486333604 1.1994698704941633 -0.026128173079566927
    vertex 1.4897314863336084 1.1994698704941633 9.973871826920432
    vertex 1.4897314863336084 1.1994698704941633 -0.02612817307956834
  endloop
endfacet
facet normal 0.0 -1.0 0.0
  outer loop
    vertex 1.4897314863336084 1.1994698704941633 9.973871826920432
    vertex 16.489731486333604 1.1994698704941633 -0.026128173079566927
    vertex 16.489731486333604 1.1994698704941633 4.973871826920433
  endloop
endfacet
endsolid Untitled-560dd230
